<svg xmlns="http://www.w3.org/2000/svg" width="1200" height="80" viewBox="-8 0 960 64"><style>@keyframes ani{0%{stroke-dasharray:200;stroke-dashoffset:250}100%{stroke-dasharray:200;stroke-dashoffset:400}}#stroke{fill:none;clip-path:url(#clip);stroke:#fff;stroke-width:8;animation:ani cubic-bezier(0, 0, 0.5, 1) 1.5s}</style><defs><clipPath id="clip"><path fill="none" d="M599 36l27-26h210v17l9-9v28H538l-16 16V44h-18v18l-16-16h-80l-16 16V46h-21l-16 16V46H203l-16 16V46.5l-71-.5v16l-16-16H16L0 62V9h148v18h-27v10h10l-9-9h27V10h128l-26 26h8l26-26 59 1 9-9h112v25l-9 9h10V10h147l-26 26h12z"/></clipPath></defs><g id="stroke"><path d="M36 22H4v40M36 33H4M69 46V20L40 49M106 18v28L79 19v27M122 32h21v10h-27V22h31M181 46V20l-29 29M218 46V27l-13.5 13.2L191 27v35M259 22h-31v20h31M228 32h31M279 42h28l-20-20h28M349 2v40h-28V18M386 46V27l-13.5 13.2L359 27v35M464 22h-31v20h31M433 32h31M423 46V27l-13.5 13.2L396 27v35M507 53l-21-21h12V22h-28v24M558 22h-32v40M558 33h-32M595 22h-31v20h31M564 32h31M628 46V20l-29 29M634 42h28l-20-20h28M672 22h34M689 46V22M760 42h-27l10-10h13V22h-31M835 42h-27l10-10h13V22h-31M766 22h27v20h-27zM841 46V18"/></g></svg>